<?xml version="1.0" encoding="utf-8"?>
<!-- Generator: Adobe Illustrator 15.0.0, SVG Export Plug-In . SVG Version: 6.00 Build 0)  -->
<!DOCTYPE svg PUBLIC "-//W3C//DTD SVG 1.1//EN" "http://www.w3.org/Graphics/SVG/1.1/DTD/svg11.dtd">
<svg version="1.1" id="Layer_1" xmlns="http://www.w3.org/2000/svg" xmlns:xlink="http://www.w3.org/1999/xlink" x="0px" y="0px"
	 width="225.792px" height="225.792px" viewBox="4.452 4.08 225.792 225.792" enable-background="new 4.452 4.08 225.792 225.792"
	 xml:space="preserve">
<ellipse cx="117.348" cy="116.975" rx="107.49" ry="104.172"/>
<path fill="#FFFFFF" d="M230.244,116.975c0-62.208-50.688-112.896-112.896-112.896S4.452,54.768,4.452,116.975
	c0,34.271,15.551,65.088,39.744,85.824c0.288,0.287,0.576,0.576,1.152,0.863c19.584,16.416,44.64,26.209,72.288,26.209
	c27.072,0,52.128-9.793,71.712-25.633c1.151-0.287,2.016-1.152,2.592-2.018C215.268,181.201,230.244,150.959,230.244,116.975z
	 M14.82,116.975c0-56.448,46.08-102.527,102.528-102.527s102.528,46.08,102.528,102.527c0,27.648-10.944,52.705-28.801,71.138
	c-2.881-13.537-11.52-36.576-38.016-51.554c6.047-7.487,9.504-17.278,9.504-27.647c0-24.768-20.16-44.928-44.93-44.928
	c-24.768,0-44.928,20.16-44.928,44.928c0,10.369,3.744,19.873,9.504,27.647c-26.783,14.978-35.424,38.017-38.016,51.554
	C26.052,169.967,14.82,144.624,14.82,116.975z"/>
</svg>
